<svg width="512" height="512" viewBox="0 0 512 512" fill="none" xmlns="http://www.w3.org/2000/svg">
<path d="M507.124 211.791C505.708 210.625 492.873 200.884 465.328 200.884C458.203 200.884 450.827 201.592 443.701 202.799C438.492 166.498 408.322 148.931 407.114 148.015L399.738 143.727L394.988 150.596C389.07 159.838 384.528 170.287 381.945 180.944C376.944 201.592 380.028 221.032 390.487 237.642C377.902 244.761 357.484 246.426 353.191 246.676H15.9475C7.15486 246.676 0.0291023 253.794 0.0291023 262.578C-0.42928 292.009 4.52958 321.399 14.739 349.166C26.3652 379.513 43.7004 402.076 66.0361 415.814C91.2054 431.216 132.293 440 178.59 440C199.467 440 220.386 438.085 241.055 434.297C269.808 429.093 297.352 419.102 322.73 404.657C343.649 392.543 362.401 377.14 378.319 359.115C405.155 328.976 421.074 295.298 432.7 265.409C434.367 265.409 435.784 265.409 437.45 265.409C466.662 265.409 484.705 253.794 494.665 243.803C501.332 237.642 506.291 230.024 509.875 221.49L512 215.329L507.124 211.791ZM298.394 236.934H343.524C345.649 236.934 347.566 235.269 347.566 232.896V192.558C347.566 190.435 345.899 188.52 343.524 188.52H298.394C296.269 188.52 294.352 190.185 294.352 192.558V232.896C294.602 235.269 296.269 236.934 298.394 236.934ZM235.471 121.414H280.6C282.726 121.414 284.643 119.749 284.643 117.376V77.038C284.643 74.9149 282.726 73 280.6 73H235.471C233.345 73 231.429 74.6652 231.429 77.038V117.376C231.429 119.499 233.304 121.414 235.471 121.414ZM235.471 179.278H280.6C282.726 179.278 284.643 177.364 284.643 175.24V134.902C284.643 132.779 282.726 130.864 280.6 130.864H235.471C233.345 130.864 231.429 132.529 231.429 134.902V175.24C231.429 177.405 233.304 179.278 235.471 179.278ZM173.006 179.278H218.136C220.261 179.278 222.178 177.364 222.178 175.24V134.902C222.178 132.779 220.511 130.864 218.136 130.864H173.006C170.881 130.864 168.964 132.529 168.964 134.902V175.24C168.964 177.405 170.631 179.278 173.006 179.278ZM109.582 179.278H154.712C156.837 179.278 158.754 177.364 158.754 175.24V134.902C158.754 132.779 157.087 130.864 154.712 130.864H109.582C107.457 130.864 105.54 132.529 105.54 134.902V175.24C105.79 177.405 107.457 179.278 109.582 179.278ZM235.471 236.934H280.6C282.726 236.934 284.643 235.269 284.643 232.896V192.558C284.643 190.435 282.976 188.52 280.6 188.52H235.471C233.345 188.52 231.429 190.185 231.429 192.558V232.896C231.429 235.269 233.304 236.934 235.471 236.934ZM173.006 236.934H218.136C220.261 236.934 222.178 235.269 222.178 232.896V192.558C222.178 190.435 220.511 188.52 218.136 188.52H173.006C170.881 188.52 168.964 190.185 168.964 192.558V232.896C168.964 235.269 170.631 236.934 173.006 236.934ZM109.582 236.934H154.712C156.837 236.934 158.754 235.269 158.754 232.896V192.558C158.754 190.435 157.087 188.52 154.712 188.52H109.582C107.457 188.52 105.54 190.185 105.54 192.558V232.896C105.79 235.269 107.457 236.934 109.582 236.934ZM47.3675 236.934H92.4972C94.6225 236.934 96.5393 235.269 96.5393 232.896V192.558C96.5393 190.435 94.8725 188.52 92.4972 188.52H47.3675C45.2422 188.52 43.3254 190.185 43.3254 192.558V232.896C43.5754 235.269 45.2422 236.934 47.3675 236.934Z" fill="#0091E2"/>
</svg>
